REM DIRINDEX 1\4,1\2\5,1\2\6,1\2\7,1\3\8,1\3\9,1\3\10,1\3\11
REM DIRNAME cjc108,folder01,folder02,folder03,folder04,folder05,folder06,folder07,folder08,folder09,folder10
TITLE ""
FILE "t_k_546-560.mp3" MP3
  TRACK 01 AUDIO
    TITLE "5:cjc108_1644"
    INDEX 01 00:00:00
  TRACK 02 AUDIO
    TITLE "0:"
    INDEX 01 00:01:32
  TRACK 03 AUDIO
    TITLE "6:cjc108_1645"
    INDEX 01 00:01:50
  TRACK 04 AUDIO
    TITLE "0:"
    INDEX 01 00:04:07
  TRACK 05 AUDIO
    TITLE "7:cjc108_1646"
    INDEX 01 00:04:31
  TRACK 06 AUDIO
    TITLE "0:"
    INDEX 01 00:08:70
  TRACK 07 AUDIO
    TITLE "5:cjc108_1647"
    INDEX 01 00:09:61
  TRACK 08 AUDIO
    TITLE "0:"
    INDEX 01 00:11:62
  TRACK 09 AUDIO
    TITLE "6:cjc108_1648"
    INDEX 01 00:12:05
  TRACK 10 AUDIO
    TITLE "0:"
    INDEX 01 00:13:16
  TRACK 11 AUDIO
    TITLE "7:cjc108_1649"
    INDEX 01 00:13:39
  TRACK 12 AUDIO
    TITLE "0:"
    INDEX 01 00:17:74
  TRACK 13 AUDIO
    TITLE "5:cjc108_1650"
    INDEX 01 00:18:64
  TRACK 14 AUDIO
    TITLE "0:"
    INDEX 01 00:20:16
  TRACK 15 AUDIO
    TITLE "6:cjc108_1651"
    INDEX 01 00:20:30
  TRACK 16 AUDIO
    TITLE "0:"
    INDEX 01 00:22:74
  TRACK 17 AUDIO
    TITLE "7:cjc108_1652"
    INDEX 01 00:23:14
  TRACK 18 AUDIO
    TITLE "0:"
    INDEX 01 00:28:15
  TRACK 19 AUDIO
    TITLE "5:cjc108_1653"
    INDEX 01 00:29:09
  TRACK 20 AUDIO
    TITLE "0:"
    INDEX 01 00:30:52
  TRACK 21 AUDIO
    TITLE "6:cjc108_1654"
    INDEX 01 00:30:63
  TRACK 22 AUDIO
    TITLE "0:"
    INDEX 01 00:32:31
  TRACK 23 AUDIO
    TITLE "7:cjc108_1655"
    INDEX 01 00:32:54
  TRACK 24 AUDIO
    TITLE "0:"
    INDEX 01 00:36:40
  TRACK 25 AUDIO
    TITLE "5:cjc108_1656"
    INDEX 01 00:37:26
  TRACK 26 AUDIO
    TITLE "0:"
    INDEX 01 00:38:43
  TRACK 27 AUDIO
    TITLE "6:cjc108_1657"
    INDEX 01 00:38:61
  TRACK 28 AUDIO
    TITLE "0:"
    INDEX 01 00:40:01
  TRACK 29 AUDIO
    TITLE "7:cjc108_1658"
    INDEX 01 00:40:19
  TRACK 30 AUDIO
    TITLE "0:"
    INDEX 01 00:43:03
  TRACK 31 AUDIO
    TITLE "5:cjc108_1659"
    INDEX 01 00:43:58
  TRACK 32 AUDIO
    TITLE "0:"
    INDEX 01 00:45:08
  TRACK 33 AUDIO
    TITLE "6:cjc108_1660"
    INDEX 01 00:45:22
  TRACK 34 AUDIO
    TITLE "0:"
    INDEX 01 00:46:60
  TRACK 35 AUDIO
    TITLE "7:cjc108_1661"
    INDEX 01 00:47:05
  TRACK 36 AUDIO
    TITLE "0:"
    INDEX 01 00:51:63
  TRACK 37 AUDIO
    TITLE "5:cjc108_1662"
    INDEX 01 00:52:45
  TRACK 38 AUDIO
    TITLE "0:"
    INDEX 01 00:54:01
  TRACK 39 AUDIO
    TITLE "6:cjc108_1663"
    INDEX 01 00:54:29
  TRACK 40 AUDIO
    TITLE "0:"
    INDEX 01 00:55:46
  TRACK 41 AUDIO
    TITLE "7:cjc108_1664"
    INDEX 01 00:55:63
  TRACK 42 AUDIO
    TITLE "0:"
    INDEX 01 01:01:64
  TRACK 43 AUDIO
    TITLE "5:cjc108_1665"
    INDEX 01 01:02:32
  TRACK 44 AUDIO
    TITLE "0:"
    INDEX 01 01:03:55
  TRACK 45 AUDIO
    TITLE "6:cjc108_1666"
    INDEX 01 01:04:00
  TRACK 46 AUDIO
    TITLE "0:"
    INDEX 01 01:05:69
  TRACK 47 AUDIO
    TITLE "7:cjc108_1667"
    INDEX 01 01:06:10
  TRACK 48 AUDIO
    TITLE "0:"
    INDEX 01 01:11:29
  TRACK 49 AUDIO
    TITLE "5:cjc108_1668"
    INDEX 01 01:12:11
  TRACK 50 AUDIO
    TITLE "0:"
    INDEX 01 01:13:57
  TRACK 51 AUDIO
    TITLE "6:cjc108_1669"
    INDEX 01 01:14:00
  TRACK 52 AUDIO
    TITLE "0:"
    INDEX 01 01:16:20
  TRACK 53 AUDIO
    TITLE "7:cjc108_1670"
    INDEX 01 01:16:38
  TRACK 54 AUDIO
    TITLE "0:"
    INDEX 01 01:20:22
  TRACK 55 AUDIO
    TITLE "5:cjc108_1671"
    INDEX 01 01:21:10
  TRACK 56 AUDIO
    TITLE "0:"
    INDEX 01 01:22:31
  TRACK 57 AUDIO
    TITLE "6:cjc108_1672"
    INDEX 01 01:22:33
  TRACK 58 AUDIO
    TITLE "0:"
    INDEX 01 01:23:44
  TRACK 59 AUDIO
    TITLE "7:cjc108_1673"
    INDEX 01 01:23:62
  TRACK 60 AUDIO
    TITLE "0:"
    INDEX 01 01:28:55
  TRACK 61 AUDIO
    TITLE "5:cjc108_1674"
    INDEX 01 01:29:50
  TRACK 62 AUDIO
    TITLE "0:"
    INDEX 01 01:31:00
  TRACK 63 AUDIO
    TITLE "6:cjc108_1675"
    INDEX 01 01:31:18
  TRACK 64 AUDIO
    TITLE "0:"
    INDEX 01 01:33:40
  TRACK 65 AUDIO
    TITLE "7:cjc108_1676"
    INDEX 01 01:33:60
  TRACK 66 AUDIO
    TITLE "0:"
    INDEX 01 01:38:10
  TRACK 67 AUDIO
    TITLE "5:cjc108_1677"
    INDEX 01 01:39:00
  TRACK 68 AUDIO
    TITLE "0:"
    INDEX 01 01:40:42
  TRACK 69 AUDIO
    TITLE "6:cjc108_1678"
    INDEX 01 01:40:54
  TRACK 70 AUDIO
    TITLE "0:"
    INDEX 01 01:42:16
  TRACK 71 AUDIO
    TITLE "7:cjc108_1679"
    INDEX 01 01:42:30
  TRACK 72 AUDIO
    TITLE "0:"
    INDEX 01 01:46:70
  TRACK 73 AUDIO
    TITLE "5:cjc108_1680"
    INDEX 01 01:47:54
  TRACK 74 AUDIO
    TITLE "0:"
    INDEX 01 01:49:10
  TRACK 75 AUDIO
    TITLE "6:cjc108_1681"
    INDEX 01 01:49:16
  TRACK 76 AUDIO
    TITLE "0:"
    INDEX 01 01:51:32
  TRACK 77 AUDIO
    TITLE "7:cjc108_1682"
    INDEX 01 01:51:50
  TRACK 78 AUDIO
    TITLE "0:"
    INDEX 01 01:55:50
  TRACK 79 AUDIO
    TITLE "5:cjc108_1683"
    INDEX 01 01:56:32
  TRACK 80 AUDIO
    TITLE "0:"
    INDEX 01 01:57:57
  TRACK 81 AUDIO
    TITLE "6:cjc108_1684"
    INDEX 01 01:57:74
  TRACK 82 AUDIO
    TITLE "0:"
    INDEX 01 01:59:38
  TRACK 83 AUDIO
    TITLE "7:cjc108_1685"
    INDEX 01 01:59:55
  TRACK 84 AUDIO
    TITLE "0:"
    INDEX 01 02:03:61
  TRACK 85 AUDIO
    TITLE "5:cjc108_1686"
    INDEX 01 02:04:43
  TRACK 86 AUDIO
    TITLE "0:"
    INDEX 01 02:06:26
  TRACK 87 AUDIO
    TITLE "6:cjc108_1687"
    INDEX 01 02:06:36
  TRACK 88 AUDIO
    TITLE "0:"
    INDEX 01 02:08:45
  TRACK 89 AUDIO
    TITLE "7:cjc108_1688"
    INDEX 01 02:08:58
  TRACK 90 AUDIO
    TITLE "0:"
    INDEX 01 02:14:16
